<svg xmlns="http://www.w3.org/2000/svg" width="180" height="58" fill="none"><path fill="#011744" fill-rule="evenodd" d="M40.04 27.58A9332.44 9332.44 0 0 0 .01 55.4c-.16.17 1.6.24 5.8.24h6.06L45.9 32.07 79.96 8.5V4.24c0-2.34-.03-4.25-.06-4.24-.03 0-17.97 12.42-39.86 27.58Zm29.65-9.7-10.15 7.1v30.67L63 55.6l3.46-.06.06-4.2.07-4.19 6.54-4.96 6.55-4.96.15-9.36c.09-5.15.13-11.1.09-13.22l-.08-3.86-10.15 7.1Zm37.95 1.2v8.39h2.66l2.67-.01 2.72-4.23 2.72-4.22.06 4.23.07 4.23h5.43V10.7h-5.23l-2.77 4.36-2.78 4.36-.06-4.36-.06-4.36h-5.43v8.38Zm41.5-7.74c0 .35-.1 2.59-.2 4.97-.26 5.46-.69 6.73-2.24 6.73-.56 0-.71.59-.72 2.71 0 1.87.07 1.94 2.02 1.95 2.38 0 4.14-1.36 4.86-3.78.47-1.55.83-4.64.83-6.98v-1.82h3.86v12.35H163V10.7h-13.84l-.01.64Zm-58.52 7.84v8.29h5.67v-4.13l2.33-.13c2.69-.15 3.6-.39 4.9-1.29a5.93 5.93 0 0 0 0-9.63c-1.55-1.07-2.26-1.2-7.74-1.3l-5.16-.1v8.29Zm38.4-.16a296.4 296.4 0 0 0-3.46 8.28c0 .1 1.24.15 2.75.12l2.75-.07.5-1.4.51-1.4H138.38l.48 1.4.48 1.4 2.86.06 2.87.07-.2-.53-3.51-8.22-3.3-7.68-2.8-.06-2.78-.06-3.46 8.1ZM96.29 17.1v1.98h1.45c1.93 0 2.64-.52 2.64-1.98 0-1.45-.7-1.98-2.64-1.98h-1.45v1.98Zm38.15 1.22c-.4 1-.71 1.89-.71 1.99 0 .1.66.17 1.47.17.81 0 1.48-.09 1.48-.2 0-.21-1.31-3.55-1.45-3.7-.05-.04-.4.74-.8 1.74Zm-64.8 8.18-3.18 2.26v4.83c0 2.65.05 4.8.1 4.76.07-.03 1.53-1.13 3.24-2.44l3.12-2.39v-4.66c0-2.56-.02-4.65-.05-4.64-.04 0-1.5 1.03-3.24 2.28ZM36.95 40.65 16.09 55.29c-.4.29.34.33 5.67.34h6.12l11.3-7.91a785.65 785.65 0 0 1 11.4-7.91c.06 0 .1 3.56.1 7.92v7.91h7.04V40.97c0-8.07-.08-14.66-.17-14.65-.1 0-9.36 6.45-20.59 14.33ZM92.88 38c0 .42-.1 2.66-.21 4.98-.27 5.34-.7 6.6-2.24 6.6-.56 0-.71.6-.72 2.72 0 1.87.07 1.94 2.02 1.94 3.27.01 4.92-2.12 5.45-7.05.14-1.23.25-2.98.25-3.88v-1.64H101.28v12.34h5.45V37.25H92.89V38Zm16.57 7.63v8.38h5.33l2.72-4.23 2.73-4.22.06 4.22.06 4.23h5.44V37.25h-5.22l-2.78 4.36-2.78 4.36-.06-4.36-.06-4.36h-5.44v8.38Zm21.48-6.81c-.08.86-.15 2.25-.16 3.08 0 1.65-.32 4.26-.7 5.68-.29 1.12-1.13 2-1.9 2h-.57V57.28h5v-3.26h9.3v3.26h4.99V49.6h-2.05V37.25h-13.77l-.14 1.57Zm17.77 6.81v8.38H162.32V49.82h-8.17V47.5H161.18v-3.96H154.15v-2.09h7.94v-4.2H148.7v8.39Zm15.88.12V54h5.68V49.82h1.69c3.26 0 5.15-.7 6.65-2.44a5.67 5.67 0 0 0 0-7.46c-1.77-2.06-3.24-2.44-9.49-2.44h-4.53v8.27Zm-29.12-1.8a20.1 20.1 0 0 1-.93 5.23c-.16.37.04.4 2.35.4h2.52v-7.91h-3.79l-.15 2.27Zm34.8-.3v1.98h1.44c1.94 0 2.64-.53 2.64-1.98s-.7-1.98-2.64-1.98h-1.44v1.98Z" clip-rule="evenodd"/></svg>