<svg>
    <symbol id="wallet" xmlns="http://www.w3.org/2000/svg" width="40" height="37" fill="none"><path fill="#fff" fill-rule="evenodd" d="M23.77.07c-.1.04-2.63 1.54-5.63 3.34L12.71 6.7l8 .02c4.4 0 8 0 8.03-.02.05-.05-3.5-6.1-3.72-6.33-.3-.32-.86-.45-1.25-.3ZM3.75 1.83a5.21 5.21 0 0 0-3.2 2.6C-.04 5.66 0 4.62.02 19.5l.02 13.28.21.57a5.16 5.16 0 0 0 3.19 3.18l.67.24 14.73.03c10.35.01 14.85 0 15.14-.07 1-.2 1.93-.94 2.39-1.87l.25-.51.02-2.13.03-2.13-2.72-.03c-2.64-.04-2.74-.04-3.4-.24a7.57 7.57 0 0 1-5.32-5.52 8.65 8.65 0 0 1 0-3.48 7.51 7.51 0 0 1 4.89-5.33c1.1-.37 1.94-.46 4.6-.46h1.95l-.03-2.1-.02-2.1-.22-.46a3.34 3.34 0 0 0-2.08-1.85c-.48-.15-.77-.15-15-.15-10.77 0-14.57-.02-14.8-.1C3.16 7.88 2.96 6 4.2 5.27l.38-.22 3.07-.02 3.07-.03 2.67-1.6c1.47-.9 2.69-1.63 2.7-1.65.02-.02-2.65-.03-5.93-.02-4.95 0-6.05.02-6.4.11Zm25.08-.07c0 .03.63 1.13 1.39 2.45l1.39 2.4.02-1.1c.02-1.15-.06-1.58-.4-2.15a3.6 3.6 0 0 0-1.67-1.45c-.45-.15-.73-.2-.73-.15Zm2.84 15.86a5.18 5.18 0 0 0-3.94 3.44c-.23.7-.28 1.83-.12 2.58.2.95.6 1.67 1.38 2.44.5.52.8.74 1.25.96 1.08.53 1.11.53 5.28.51 3.6-.02 3.75-.03 3.96-.18.11-.08.28-.29.37-.44.16-.29.16-.35.14-4.43l-.02-4.14-.19-.26a1.5 1.5 0 0 0-.5-.41c-.3-.14-.57-.15-3.77-.14-1.89 0-3.62.04-3.84.07Zm.3 3.4a1.66 1.66 0 0 0-.29 2.98c.72.43 1.7.2 2.19-.49.46-.66.33-1.64-.28-2.16a1.6 1.6 0 0 0-1.61-.34Z" clip-rule="evenodd"/></symbol>
    <symbol id="check" xmlns="http://www.w3.org/2000/svg" width="43" height="43" fill="none"><path fill="#fff" fill-rule="evenodd" d="M12.88.13a3.89 3.89 0 0 0-2.66 2.68c-.11.43-.13 1.5-.13 7.78v7.28l.8-.05a14.6 14.6 0 0 1 4.95.74c2.1.7 4.3 2.14 5.81 3.8l.44.48h6.97c6.86 0 6.97 0 7.33.18.38.18.7.68.7 1.08s-.32.9-.7 1.09c-.36.17-.48.17-6.5.17h-6.13l.22.49c.58 1.29.96 2.58 1.14 3.83l.1.72h5.4c5.29 0 5.41 0 5.77.18.38.18.7.68.7 1.08s-.32.9-.7 1.09c-.36.17-.48.17-5.77.17h-5.4l-.06.48a14.03 14.03 0 0 1-5.35 9.25l-.45.35h10.16c11.1 0 10.68.02 11.54-.48.54-.32 1.1-.86 1.4-1.38.57-.93.54.04.54-15.84V10.92h-4.95c-4.83 0-4.96 0-5.31-.18-.26-.12-.41-.27-.54-.53-.17-.34-.17-.48-.17-5.28V0h-9.35c-7.94.01-9.41.03-9.8.13Zm21.68 4.45V8.4h7.72l-3.84-3.82C36.34 2.48 34.6.76 34.58.76c0 0-.02 1.72-.02 3.82ZM16.7 15.46c-.38.18-.7.69-.7 1.08 0 .4.32.9.7 1.1.36.16.44.16 9.84.16s9.49 0 9.85-.17c.38-.18.7-.68.7-1.09 0-.4-.32-.9-.7-1.08-.36-.17-.44-.17-9.85-.17-9.44 0-9.49 0-9.84.17Zm-6.9 4.95c-2.63.4-4.84 1.55-6.67 3.45a11.24 11.24 0 0 0-2.97 5.62c-.21 1-.21 3.36 0 4.36.5 2.24 1.43 4.02 2.95 5.6a11.49 11.49 0 0 0 6.06 3.36c1.1.24 3.37.22 4.55-.04a11.28 11.28 0 0 0 5.89-3.33 11.18 11.18 0 0 0 2.94-5.59c.22-1 .22-3.36 0-4.36a11.18 11.18 0 0 0-2.94-5.59 11.17 11.17 0 0 0-5.72-3.29c-1-.23-3.17-.33-4.1-.19Zm5.18 7.86c-.17.07-1.3 1.12-2.84 2.66l-2.55 2.53-.92-.9c-1.04-1-1.36-1.17-1.94-1-.68.2-1.06.89-.86 1.55.08.3.37.62 1.55 1.8 1.18 1.18 1.51 1.46 1.8 1.54.75.22.76.22 4.14-3.14 3.02-2.99 3.4-3.42 3.4-3.92 0-.4-.33-.9-.71-1.08-.42-.2-.66-.21-1.07-.04Z" clip-rule="evenodd"/></symbol>
    <symbol id="settings" xmlns="http://www.w3.org/2000/svg" width="51" height="50" fill="none"><path fill="#fff" fill-rule="evenodd" d="M28.07.16c-.22.1-.42.47-.83 1.45l-.54 1.3-.87.34-.88.34-1.29-.49a8.87 8.87 0 0 0-1.57-.48c-.42 0-3.49 3-3.49 3.4 0 .15.27.86.6 1.56l.6 1.3-.25.55-.36.84c-.1.23-.37.38-1.48.8-.78.31-1.42.63-1.51.76-.13.17-.16.68-.16 2.37 0 1.9.02 2.17.2 2.39.11.13.77.48 1.47.76.96.4 1.3.59 1.38.78l.36.83.25.57-.57 1.37c-.46 1.1-.55 1.42-.47 1.63.06.14.8.95 1.63 1.8 1.22 1.24 1.57 1.53 1.82 1.53.16 0 .88-.25 1.59-.55l1.28-.56.85.32.85.33.58 1.34c.32.74.65 1.39.72 1.43.08.05 1.2.1 2.5.1 2.05 0 2.37-.03 2.5-.18.09-.1.38-.73.66-1.39a5.5 5.5 0 0 1 .67-1.29l.86-.38.7-.3 1.41.56c1.24.5 1.45.54 1.7.43.37-.17 3.19-3 3.28-3.3.05-.17-.12-.67-.54-1.6l-.61-1.35.35-.84.35-.83 1.38-.57c1.08-.44 1.4-.62 1.48-.83.06-.14.1-1.24.1-2.43 0-1.74-.02-2.18-.15-2.29-.09-.07-.72-.36-1.4-.64l-1.25-.52-.34-.84-.34-.84.58-1.29c.31-.7.57-1.4.57-1.55 0-.4-3.07-3.38-3.47-3.38-.16 0-.88.24-1.6.53l-1.31.53-.57-.24-.86-.36c-.22-.09-.37-.31-.6-.86C33.47.84 33.21.38 32.87.19c-.28-.17-.62-.2-2.42-.19-1.57 0-2.17.04-2.38.16Zm1.55 7.7a6.67 6.67 0 0 0-4 2.04 6.29 6.29 0 0 0-1.67 4.3c0 1.8.58 3.17 1.9 4.47a6.5 6.5 0 0 0 9.2.05c.9-.88 1.39-1.73 1.72-2.98a5.85 5.85 0 0 0-.47-4.27A5.2 5.2 0 0 0 35 9.71a6.35 6.35 0 0 0-5.38-1.84ZM.49 27.23c-.19.08-.38.23-.42.33-.04.1-.07 4.04-.07 8.75 0 8.41 0 8.56.22 8.77.22.21.37.22 3.83.22h3.6l.24-.25.24-.25V36.2c0-8.28 0-8.58-.21-8.83l-.21-.26-3.44-.03c-2.72-.02-3.5 0-3.78.13Zm9.31 8.77v5.9l6.27 3.44a594.1 594.1 0 0 0 6.83 3.72c1.76.86 4.24.86 6-.01.51-.26 20.24-12.33 21.3-13.04.6-.4.85-.94.79-1.7-.05-.62-.27-1-.79-1.38-.67-.49-.88-.43-8.82 2.32-4.04 1.4-7.37 2.6-7.4 2.67a5.21 5.21 0 0 1-1.71 1.5l-.58.26-5.52.03c-5.17.03-5.54.02-5.77-.16a.8.8 0 0 1-.13-1.15l.24-.3 5.49-.03 5.48-.03.41-.3c.53-.4.75-.82.75-1.46 0-.6-.28-1.12-.74-1.42-.28-.18-.69-.2-3.83-.26-3.85-.07-3.93-.08-4.72-.76a3.6 3.6 0 0 1-.7-.9c-.64-1.24-1.95-2.1-3.86-2.5-.89-.2-1.55-.23-5-.28L9.8 30.1V36Z" clip-rule="evenodd"/></symbol>
    <symbol id="detail" xmlns="http://www.w3.org/2000/svg" width="47" height="41" fill="none"><path fill="#fff" fill-rule="evenodd" d="M23.2 2.64c-.84 1.45-1.54 2.67-1.55 2.72-.02.04 1.28.09 3.08.1l3.1.03.43.73c.23.41.44.74.46.73.03 0 .4-.14.83-.3a6.59 6.59 0 0 1 5.7.24c.74.36 1 .55 1.71 1.26.7.7.9.98 1.27 1.72.54 1.1.73 1.9.73 3.08 0 1.17-.2 1.99-.71 3.05a7.2 7.2 0 0 1-2.16 2.54c-.26.17-.46.35-.47.39 0 .04.65 1.2 1.44 2.57.8 1.37 1.44 2.54 1.44 2.6 0 .06-.21.46-.47.9s-.48.82-.48.86c0 .03.47.04 1.03.03l1.03-.03 3.67-6.36c2.02-3.5 3.7-6.4 3.72-6.46.02-.05-1.63-3-3.68-6.54L39.6.05 32.16.02 24.7 0 23.2 2.64ZM4.46 16.14C.34 23.3-.09 24.09.01 24.27c.25.48 8.68 15.08 8.88 15.4l.22.34h17.1l4.58-7.94 4.58-7.95-.2-.37c-.1-.2-2.14-3.78-4.54-7.94l-4.37-7.56-8.6-.02-8.61-.02-4.58 7.93Zm26.66-7.15c-.26.08-.6.2-.76.28-.26.14-.27.16-.16.35.07.1 1 1.7 2.05 3.54a53.83 53.83 0 0 0 2 3.34c.05 0 .37-.28.71-.62a3.95 3.95 0 0 0 1.22-3.53A4.1 4.1 0 0 0 31.13 9Zm-14.6 7a8.26 8.26 0 1 0 5.83 15.24c.9-.5 2.38-1.97 2.91-2.88a7.88 7.88 0 0 0 1.17-4.29A8.17 8.17 0 0 0 19.85 16c-.78-.16-2.58-.16-3.33 0Zm1 2.6a5.66 5.66 0 0 0-4.83 5.47 5.62 5.62 0 0 0 5.56 5.54c2.5 0 4.83-1.9 5.35-4.38.26-1.26.1-2.37-.52-3.64a5.54 5.54 0 0 0-3.38-2.8 7.24 7.24 0 0 0-2.18-.19Z" clip-rule="evenodd"/></symbol>
</svg>